<?xml version="1.0" encoding="UTF-8" standalone="no"?>
<!-- Generated by graphviz version 2.40.1 (20161225.0304)
 -->

<!-- Title: summary Pages: 1 -->

<svg
   xmlns:dc="http://purl.org/dc/elements/1.1/"
   xmlns:cc="http://creativecommons.org/ns#"
   xmlns:rdf="http://www.w3.org/1999/02/22-rdf-syntax-ns#"
   xmlns:svg="http://www.w3.org/2000/svg"
   xmlns="http://www.w3.org/2000/svg"
   xmlns:sodipodi="http://sodipodi.sourceforge.net/DTD/sodipodi-0.dtd"
   xmlns:inkscape="http://www.inkscape.org/namespaces/inkscape"
   width="1287.1796pt"
   height="187.98917pt"
   viewBox="0 0 1287.2538 187.98917"
   version="1.1"
   id="svg147"
   sodipodi:docname="sebidao-summary.svg"
   inkscape:version="0.92.4 (5da689c313, 2019-01-14)">
  <metadata
     id="metadata153">
    <rdf:RDF>
      <cc:Work
         rdf:about="">
        <dc:format>image/svg+xml</dc:format>
        <dc:type
           rdf:resource="http://purl.org/dc/dcmitype/StillImage" />
        <dc:title></dc:title>
      </cc:Work>
    </rdf:RDF>
  </metadata>
  <defs
     id="defs151" />
  <sodipodi:namedview
     pagecolor="#ffffff"
     bordercolor="#666666"
     borderopacity="1"
     objecttolerance="10"
     gridtolerance="10"
     guidetolerance="10"
     inkscape:pageopacity="0"
     inkscape:pageshadow="2"
     inkscape:window-width="1920"
     inkscape:window-height="1098"
     id="namedview149"
     showgrid="false"
     fit-margin-top="0"
     fit-margin-left="0"
     fit-margin-right="0"
     fit-margin-bottom="0"
     inkscape:zoom="0.70710678"
     inkscape:cx="986.02576"
     inkscape:cy="33.64043"
     inkscape:window-x="0"
     inkscape:window-y="27"
     inkscape:window-maximized="1"
     inkscape:current-layer="svg147" />
  <polygon
     style="fill:#ffffff"
     id="polygon4"
     points="1385.083,-184 1385.083,4 -4,4 -4,-184 "
     stroke="transparent"
     transform="matrix(0.92669322,0,0,1,3.7067729,183.99458)" />
  <ellipse
     cx="353.49249"
     cy="21.994593"
     rx="71.487297"
     ry="18"
     id="ellipse8"
     style="fill:none;stroke:#000077;stroke-opacity:1" />
  <text
     x="353.49249"
     y="25.69459"
     font-size="14.00"
     id="text10"
     style="font-size:14px;font-family:Times, serif;text-anchor:middle;fill:#e14600;fill-opacity:1">nl.fontys.sebidao</text>
  <ellipse
     cx="88.4925"
     cy="165.99458"
     rx="84.485001"
     ry="18"
     id="ellipse15"
     style="fill:none;stroke:#000077;stroke-opacity:1" />
  <text
     x="88.4925"
     y="169.69458"
     font-size="14.00"
     id="text17"
     style="font-size:14px;font-family:Times, serif;text-anchor:middle;fill:#e14600;fill-opacity:1">java.base (java.base)</text>
  <path
     d="M 323.3516,38.372991 C 275.3906,64.434891 181.6804,115.35668 128.2713,144.37898"
     id="path22"
     inkscape:connector-curvature="0"
     style="fill:none;stroke:#000000" />
  <polygon
     points="125.8809,-36.507 115.4232,-34.8076 122.5387,-42.6576 "
     id="polygon24"
     style="fill:#000000;stroke:#000000"
     transform="translate(4.0000001,183.99459)" />
  <ellipse
     cx="297.49249"
     cy="165.99458"
     rx="106.6812"
     ry="18"
     id="ellipse29"
     style="fill:none;stroke:#000077;stroke-opacity:1" />
  <text
     x="297.49249"
     y="169.69458"
     font-size="14.00"
     id="text31"
     style="font-size:14px;font-family:Times, serif;text-anchor:middle;fill:#e14600;fill-opacity:1">java.logging (java.logging)</text>
  <path
     d="m 346.5133,39.941091 c -9.5993,24.6839 -26.9665,69.342389 -38.2421,98.336789"
     id="path36"
     inkscape:connector-curvature="0"
     style="fill:none;stroke:#000000" />
  <polygon
     points="307.4462,-44.2242 300.5597,-36.1727 300.9222,-46.7613 "
     id="polygon38"
     style="fill:#000000;stroke:#000000"
     transform="translate(4.0000001,183.99459)" />
  <ellipse
     cx="495.49249"
     cy="165.99458"
     rx="73.387001"
     ry="18"
     id="ellipse43"
     style="fill:none;stroke:#000077;stroke-opacity:1" />
  <text
     x="495.49249"
     y="169.69458"
     font-size="14.00"
     id="text45"
     style="font-size:14px;font-family:Times, serif;text-anchor:middle;fill:#e14600;fill-opacity:1">java.sql (java.sql)</text>
  <path
     d="m 370.9045,39.651791 c 25.018,25.3704 71.2587,72.262389 99.8262,101.232289"
     id="path50"
     inkscape:connector-curvature="0"
     style="fill:none;stroke:#000000" />
  <polygon
     points="469.4087,-45.3795 473.9381,-35.8017 464.4245,-40.4645 "
     id="polygon52"
     style="fill:#000000;stroke:#000000"
     transform="translate(4.0000001,183.99459)" />
  <ellipse
     cx="560.49249"
     cy="93.994583"
     rx="78.786301"
     ry="18"
     id="ellipse57"
     style="fill:none;stroke:#000077;stroke-opacity:1" />
  <text
     x="560.49249"
     y="97.69458"
     font-size="14.00"
     id="text59"
     style="font-size:14px;font-family:Times, serif;text-anchor:middle;fill:#e14600;fill-opacity:1">org.postgresql.jdbc</text>
  <path
     d="m 395.6315,36.651691 c 32.3075,11.2373 77.0992,26.8171 111.8413,38.9013"
     id="path64"
     inkscape:connector-curvature="0"
     style="fill:none;stroke:#000000" />
  <polygon
     points="504.6915,-111.7235 512.9867,-105.1325 502.3918,-105.112 "
     id="polygon66"
     style="fill:#000000;stroke:#000000"
     transform="translate(4.0000001,183.99459)" />
  <path
     d="m 491.521,102.77509 c -76.0784,9.9288 -202.0421,27.0877 -310.0285,45.2195 -6.9689,1.1701 -14.2184,2.4546 -21.458,3.7819"
     id="path71"
     inkscape:connector-curvature="0"
     style="fill:none;stroke:#000000" />
  <polygon
     points="156.6672,-28.7758 146.1958,-30.388 155.3871,-35.6577 "
     id="polygon73"
     style="fill:#000000;stroke:#000000"
     transform="translate(4.0000001,183.99459)" />
  <path
     d="m 509.7835,107.87689 c -41.719,11.4212 -101.1509,27.6915 -146.5255,40.1135"
     id="path78"
     inkscape:connector-curvature="0"
     style="fill:none;stroke:#000000" />
  <polygon
     points="360.0788,-32.6002 349.5095,-33.3354 358.2304,-39.3518 "
     id="polygon80"
     style="fill:#000000;stroke:#000000"
     transform="translate(4.0000001,183.99459)" />
  <path
     d="m 544.4251,111.79239 c -7.8714,8.719 -17.4879,19.3711 -26.1059,28.9173"
     id="path85"
     inkscape:connector-curvature="0"
     style="fill:none;stroke:#000000" />
  <polygon
     points="516.6741,-40.6704 507.3751,-35.593 511.4782,-45.3611 "
     id="polygon87"
     style="fill:#000000;stroke:#000000"
     transform="translate(4.0000001,183.99459)" />
  <path
     d="M 635.8671,99.140291 C 854.99977,110.27921 1017.3816,125.187 1099.3053,155.45152"
     id="path99"
     inkscape:connector-curvature="0"
     style="fill:none;stroke:#000000"
     sodipodi:nodetypes="cc" />
  <g
     id="g1084"
     transform="translate(-102.88996,2.1160336)">
    <ellipse
       style="fill:none;stroke:#000077;stroke-opacity:1"
       id="ellipse92"
       ry="18"
       rx="106.6812"
       cy="166"
       cx="1278.4926" />
    <text
       style="font-size:14px;font-family:Times, serif;text-anchor:middle;fill:#e14600;fill-opacity:1"
       id="text94"
       font-size="14.00"
       y="169.7"
       x="1278.4926">java.naming (java.naming)</text>
    <polygon
       transform="translate(4,184)"
       style="fill:#000000;stroke:#000000"
       id="polygon101"
       points="1198.1953,-30.6645 1187.7922,-28.6585 1188.8118,-35.5839 " />
  </g>
  <ellipse
     cx="726.49249"
     cy="165.99458"
     rx="139.9756"
     ry="18"
     id="ellipse106"
     style="fill:none;stroke:#000077;stroke-opacity:1" />
  <text
     x="726.49249"
     y="169.69458"
     font-size="14.00"
     id="text108"
     style="font-size:14px;font-family:Times, serif;text-anchor:middle;fill:#e14600;fill-opacity:1">java.security.sasl (java.security.sasl)</text>
  <path
     d="m 597.3333,109.97369 c 23.5644,10.2208 54.4073,23.5984 80.0435,34.7177"
     id="path113"
     inkscape:connector-curvature="0"
     style="fill:none;stroke:#000000" />
  <polygon
     points="674.7816,-42.509 682.5631,-35.3188 671.9961,-36.0871 "
     id="polygon115"
     style="fill:#000000;stroke:#000000"
     transform="translate(4.0000001,183.99459)" />
  <ellipse
     cx="965.49249"
     cy="165.99458"
     rx="81.486298"
     ry="18"
     id="ellipse120"
     style="fill:none;stroke:#000077;stroke-opacity:1" />
  <text
     x="965.49249"
     y="169.69458"
     font-size="14.00"
     id="text122"
     style="font-size:14px;font-family:Times, serif;text-anchor:middle;fill:#e14600;fill-opacity:1">java.xml (java.xml)</text>
  <path
     d="m 624.8358,104.49059 c 63.7272,10.5214 164.0541,27.4238 250.6567,43.504 6.5261,1.2118 13.3114,2.5058 20.0987,3.8232"
     id="path127"
     inkscape:connector-curvature="0"
     style="fill:none;stroke:#000000" />
  <polygon
     points="892.365,-35.5919 901.5068,-30.2368 891.0208,-28.7221 "
     id="polygon129"
     style="fill:#000000;stroke:#000000"
     transform="translate(4.0000001,183.99459)" />
</svg>
