<?xml version="1.0" encoding="UTF-8" standalone="no"?>
<svg
   xmlns:dc="http://purl.org/dc/elements/1.1/"
   xmlns:cc="http://creativecommons.org/ns#"
   xmlns:rdf="http://www.w3.org/1999/02/22-rdf-syntax-ns#"
   xmlns:svg="http://www.w3.org/2000/svg"
   xmlns="http://www.w3.org/2000/svg"
   xmlns:sodipodi="http://sodipodi.sourceforge.net/DTD/sodipodi-0.dtd"
   xmlns:inkscape="http://www.inkscape.org/namespaces/inkscape"
   xml:space="preserve"
   width="227.20016mm"
   height="170.60815mm"
   version="1.1"
   style="clip-rule:evenodd;fill-rule:evenodd;image-rendering:optimizeQuality;shape-rendering:geometricPrecision;text-rendering:geometricPrecision"
   viewBox="0 0 22720.016 17060.815"
   id="svg15"
   sodipodi:docname="Superman_shield.svg"
   inkscape:export-filename="/home/hom/sebi/prc2/trunk/11_web/images/Superman_shield.png"
   inkscape:export-xdpi="90"
   inkscape:export-ydpi="90"
   inkscape:version="1.0.2 (1.0.2+r75+1)"><metadata
   id="metadata19"><rdf:RDF><cc:Work
       rdf:about=""><dc:format>image/svg+xml</dc:format><dc:type
         rdf:resource="http://purl.org/dc/dcmitype/StillImage" /><dc:title></dc:title></cc:Work></rdf:RDF></metadata><sodipodi:namedview
   pagecolor="#ffffff"
   bordercolor="#666666"
   borderopacity="1"
   objecttolerance="10"
   gridtolerance="10"
   guidetolerance="10"
   inkscape:pageopacity="0"
   inkscape:pageshadow="2"
   inkscape:window-width="1707"
   inkscape:window-height="1126"
   id="namedview17"
   showgrid="false"
   fit-margin-top="0"
   fit-margin-left="0"
   fit-margin-right="0"
   fit-margin-bottom="0"
   inkscape:zoom="1.3368421"
   inkscape:cx="431.35818"
   inkscape:cy="323.00315"
   inkscape:window-x="48"
   inkscape:window-y="0"
   inkscape:window-maximized="0"
   inkscape:current-layer="svg15" />
 <defs
   id="defs4"><style
     type="text/css"
     id="style2">
   <![CDATA[
    .str1 {stroke:black;stroke-width:423.33}
    .str0 {stroke:black;stroke-width:476.25}
    .fil0 {fill:#C80000}
    .fil1 {fill:#FFEB00}
   ]]>
  </style></defs>
 <g
   id="Layer_x0020_1"
   transform="translate(-86.981588,-953.875)">
  <metadata
   id="CorelCorpID_0Corel-Layer" />
  <g
   id="red"
   inkscape:groupmode="layer"
   inkscape:label="Shield">
   <polygon
   id="shield"
   class="fil0 str0"
   points="4145,1192 18750,1192 22480,4790 11447,17649 414,4790 "
   inkscape:connector-curvature="0"
   sodipodi:nodetypes="cccccc" />
  </g>
  <path
   id="bottom_inside"
   class="fil1 str1"
   d="M 6028,9587 5069,8453 c 5007,914 9466,467 10709,1316 263,205 205,510 8,787 -695,842 -2477,737 -4584,703 C 10443,9953 8001,9733 6962,10690 L 6028,9586 Z"
   inkscape:connector-curvature="0"
   sodipodi:nodetypes="cccccc" />
  <path
   id="top_x0020_left"
   class="fil1 str1"
   d="M 3357,3624 4681,2337 H 5963 C 4655,3384 3737,4828 3335,6404 L 2054,4890 3356,3624 Z"
   inkscape:connector-curvature="0"
   sodipodi:nodetypes="ccccc" />
  <path
   id="bottom"
   class="fil1 str1"
   d="m 8824,12770 2623,3054 2512,-2924 c -1275,299 -2692,447 -5135,-130 z"
   inkscape:connector-curvature="0"
   sodipodi:nodetypes="cccc" />
  <path
   id="top_right"
   class="fil1 str1"
   d="m 15303,2336 h 1111 c 24,406 -172,667 -294,796 -258,-366 -667,-710 -817,-796 z"
   inkscape:connector-curvature="0"
   sodipodi:nodetypes="cccc" />
  <path
   id="top_inside"
   class="fil1 str1"
   d="M 18359,7857 20839,4890 19041,3111 v 2002 h -3714 c -85,-1936 -2046,-2768 -4328,-2742 -2097,24 -3847,552 -4011,1719 -160,659 566,1770 4961,1548 3498,-77 5642,691 6410,2219 z"
   inkscape:connector-curvature="0"
   sodipodi:nodetypes="cccccsccc" />
 </g>
</svg>
